<svg width="22" height="23" viewBox="0 0 22 23" fill="none" xmlns="http://www.w3.org/2000/svg">
<path d="M9.55399 6.17755L6.17099 2.28827C5.78099 1.84008 5.06599 1.84207 4.61299 2.29424L1.83099 5.07003C1.00299 5.89569 0.765988 7.12174 1.24499 8.10477C4.10661 14.0059 8.88503 18.7718 14.806 21.6301C15.792 22.1072 17.022 21.8711 17.85 21.0455L20.658 18.2438C21.113 17.7906 21.114 17.0745 20.66 16.6861L16.74 13.3346C16.33 12.9841 15.693 13.0299 15.282 13.4402L13.918 14.8007C13.8482 14.8736 13.7562 14.9217 13.6563 14.9375C13.5564 14.9533 13.4541 14.9361 13.365 14.8884C11.1354 13.6096 9.28598 11.7652 8.00499 9.54296C7.95702 9.45407 7.93964 9.35196 7.95554 9.25229C7.97144 9.15262 8.01972 9.0609 8.09299 8.99119L9.45299 7.63566C9.86499 7.22333 9.90999 6.5859 9.55399 6.17656V6.17755Z" stroke="white" stroke-width="2" stroke-linecap="round" stroke-linejoin="round"/>
</svg>
